/* XPM */
static char *atsign[] = {
/* columns rows colors chars-per-pixel */
"16 16 16 1",
"  c #373737",
". c #444444",
"X c gray32",
"o c #5F5F5F",
"O c #6C6C6C",
"+ c gray48",
"@ c gray53",
"# c gray58",
"$ c #A2A2A2",
"% c #AFAFAF",
"& c #BCBCBC",
"* c #CACACA",
"= c #D7D7D7",
"- c #E4E4E4",
"; c gray95",
": c None",
/* pixels */
"::::::::::::::::",
"::::::::::::::::",
":::::%O   O%::::",
":::-oX%:::$.O:::",
"::;Xo;:::::-X+::",
"::@ -:*.XO && =:",
":; +:-. -. -; %:",
":* $:$ +:..:; %:",
":* $:@ #; O:& -:",
":= +:@ $$ @-X$::",
"::o.;=. X  o&:::",
"::= O:::::::::::",
":::& o&:::*$;:::",
"::::;$.   O$-:::",
"::::::::::::::::",
"::::::::::::::::"
};
