/* XPM */
static char *home[] = {
/* columns rows colors chars-per-pixel */
"16 16 2 1",
"  c #373737",
". c None",
/* pixels */
"................",
"......    ......",
"..... .... .....",
"....        ....",
"... ........ ...",
"..            ..",
". ............ .",
".              .",
"...          ...",
"... ........ ...",
"... ........ ...",
"... ..    .. ...",
"... ..    .. ...",
"... ..    .. ...",
"...          ...",
"................"
};
