/* XPM */
static char *icon[] = {
/* columns rows colors chars-per-pixel */
"16 16 163 2",
"   c #005793",
".  c #005995",
"X  c #015A95",
"o  c #005896",
"O  c #005A97",
"+  c #005A98",
"@  c #005A99",
"#  c #005B99",
"$  c #005B9A",
"%  c #005E9D",
"&  c #005D9E",
"*  c #005E9E",
"=  c #09639F",
"-  c #2B6E9C",
";  c #0D65A1",
":  c #0566A9",
">  c #0667A9",
",  c #176EA9",
"<  c #146EAD",
"1  c #186EA9",
"2  c #1771AE",
"3  c #1D70A9",
"4  c #1D73AE",
"5  c #216FA4",
"6  c #2770A1",
"7  c #2473AA",
"8  c #2374AB",
"9  c #2273AC",
"0  c #2375AD",
"q  c #2376AE",
"w  c #2D77AA",
"e  c #2877AD",
"r  c #2979AF",
"t  c #2D7AAD",
"y  c #3076A6",
"u  c #3079AB",
"i  c #327AAA",
"p  c #327AAB",
"a  c #307AAD",
"s  c #317BAD",
"d  c #337BAC",
"f  c #307BAF",
"g  c #317BAF",
"h  c #317CAF",
"j  c #367DAD",
"k  c #377EAD",
"l  c #397EAD",
"z  c #3A7FAC",
"x  c #2377B0",
"c  c #2277B2",
"v  c #2378B2",
"b  c #2378B3",
"n  c #2679B2",
"m  c #2779B2",
"M  c #237AB7",
"N  c #237BB7",
"B  c #247AB7",
"V  c #2A79B0",
"C  c #297AB0",
"Z  c #287AB2",
"A  c #2B7DB6",
"S  c #237CB8",
"D  c #237CB9",
"F  c #237EBC",
"G  c #247EBC",
"H  c #257FBC",
"J  c #307DB2",
"K  c #387FB0",
"L  c #3A80AC",
"P  c #2880BB",
"I  c #3988BB",
"U  c #3F8BBB",
"Y  c #3D8CBE",
"T  c #4A83AB",
"R  c #4C85AC",
"E  c #4E8AAE",
"W  c #4586B3",
"Q  c #4B8BB6",
"!  c #4B8EB6",
"~  c #548EB5",
"^  c #5792B4",
"/  c #5790B6",
"(  c #5691BA",
")  c #5993BB",
"_  c #5A97B8",
"`  c #5F9ABB",
"'  c #6595B6",
"]  c #6695B6",
"[  c #629BBA",
"{  c #639BBB",
"}  c #6398BC",
"|  c #6498BC",
" . c #649ABF",
".. c #6B9FBD",
"X. c #2380C0",
"o. c #72A4C0",
"O. c #75A7C2",
"+. c #70A2C4",
"@. c #70A2C5",
"#. c #76A6C7",
"$. c #76A8C3",
"%. c #7AACC6",
"&. c #7BACC7",
"*. c #7BADC7",
"=. c #88ADC6",
"-. c #82ACCA",
";. c #85AEC9",
":. c #84AECB",
">. c #84AECC",
",. c #8BAFC8",
"<. c #82B1CB",
"1. c #88B0CB",
"2. c #9EBCD1",
"3. c #98BBD4",
"4. c #9BBDD5",
"5. c #9DBFD6",
"6. c #91BDD9",
"7. c #91BDDB",
"8. c #93BFDA",
"9. c #90BEDE",
"0. c #A0BFD3",
"q. c #9EC0D6",
"w. c #95C0DB",
"e. c #95C1DE",
"r. c #97C2DE",
"t. c #A5C3D7",
"y. c #A2C1D8",
"u. c #AAC7DB",
"i. c #AECADE",
"p. c #B0CBDE",
"a. c #9AC5E3",
"s. c #9FCAE8",
"d. c #99C9ED",
"f. c #9CCEF6",
"g. c #A0CBEA",
"h. c #B5CEE0",
"j. c #BDD3E3",
"k. c #BED4E4",
"l. c #A5D0F0",
"z. c #A7D1F2",
"x. c #A1D1F7",
"c. c #A6D2F6",
"v. c #A2D1F8",
"b. c #A2D2F8",
"n. c #A7D4F9",
"m. c #A8D4F9",
"M. c #A9D5FA",
"N. c #AAD6FB",
"B. c #CADAE5",
"V. c #CBDCE7",
"C. c #CEDEE9",
"Z. c #CCDEEA",
"A. c #CEDFEA",
"S. c #D4E3ED",
"D. c #D9E6EF",
"F. c #DFEAF1",
"G. c #E6EFF4",
"H. c #E8F0F5",
"J. c #F7FAFB",
"K. c #FBFCFD",
"L. c #FCFDFE",
"P. c gray100",
"I. c None",
/* pixels */
"I.I.I.I.I.H.j.q.5.h.F.I.I.I.I.I.",
"I.I.I.P.A.>.( j u d  .k.P.I.I.I.",
"I.I.P.4.) a k E z e h s #.L.I.I.",
"I.P.3.Q g L 9.f.d.^ x r f @.P.I.",
"I.Z.W g q o.x.v.b.e.B b C 7 i.I.",
"G.+.s 0 Z 6.n.n.M.8.G N b V K S.",
"u.i t x A ` g.N.N.%.X.F M m = 1.",
":.p 8 v S U z.N.N.l.Y I S v % | ",
"-.w 9 b D &.N.N.N.N.w.s.{ n $ } ",
"y.5 3 v S <.N.N.N.N.N.a._ 2 + ;.",
"D.l ; x M $.m.N.N.N.*.P M & 6 V.",
"I.p.# 1 b ! c.n.M.r.H N > O 0.I.",
"I.P.~ o , J ..O.7.[ M : # T P.I.",
"I.I.K./ o * 4 c b < &   R J.I.I.",
"I.I.I.P.t.y X + @ . - 2.P.I.I.I.",
"I.I.I.I.I.C.,.] ' =.B.I.I.I.I.I."
};
