/* XPM */
static char *link_icon[] = {
/* columns rows colors chars-per-pixel */
"16 16 6 1",
"  c #373737",
". c DimGray",
"X c #B4B4B4",
"o c #CDCDCD",
"O c #E6E6E6",
"+ c None",
/* pixels */
"+++++++OOOO+++++",
"++++++O.  .oO+++",
"++++++o oo  .O++",
"+++++O .O+Oo O++",
"+++++OooO++O O++",
"++++o    O+O O++",
"+++o  oo O+o O++",
"++o .oO+O+O .O++",
"+O. oO oOOo o+++",
"+O X+O.    .O+++",
"+O .O+OOOoOO++++",
"++o oO++O O+++++",
"++O. .oOo O+++++",
"+++Oo    .O+++++",
"+++++OOOOO++++++",
"++++++++++++++++"
};
