/* XPM */
static char *public_icon[] = {
/* columns rows colors chars-per-pixel */
"16 16 9 1",
"  c #373737",
". c gray57",
"X c gray58",
"o c gray61",
"O c #9F9F9F",
"+ c gray88",
"@ c gray90",
"# c gray92",
"$ c None",
/* pixels */
"$$$$$$$$$$$$$$$$",
"$ $          $ $",
"$ $$$$$$$$$$$$ $",
"$ $$$$$$$$$$$$ $",
"$ $$$$$$$$$$$$ $",
"$ $$$$$$$$$$$$ $",
"$  $$$$$$$$$$  $",
"$$ $$$$$$#O@$ $$",
"$$ $$$$$$o .$ $$",
"$  $$$$$$@X+$  $",
"$ $$$$$$$$$$$$ $",
"$ $$$$$$$$$$$$ $",
"$ $$$$$$$$$$$$ $",
"$ $$$$$$$$$$$$ $",
"$ $          $ $",
"$$$$$$$$$$$$$$$$"
};
