/* XPM */
static char *twitpic_normal[] = {
/* columns rows colors chars-per-pixel */
"16 16 2 1",
"  c #373737",
". c None",
/* pixels */
"................",
".....      .....",
"..... .  . .....",
".     ....     .",
". .....  ..... .",
". ....    .. . .",
". ...      ... .",
". ...      . . .",
". ....    .... .",
". .....  ... . .",
".              .",
"................",
".....      .....",
"................",
"....        ....",
"................"
};
